# xmcd
#
# Track frame offsets: 
#        150
#        16087
#        34981
#        52774
#        68666
#        86602
#        102922
#        128362
#        146987
#        162816
#        185484
#        203158
#        225410
#        246049
#
# Disc length: 3480 seconds
#
# Revision: 0
# Processed by: cddbd v1.5.2PL0 Copyright (c) Steve Scherf et al.
# Submitted via: ExactAudioCopy v1.0b4
#
DISCID=ac0d960e
DTITLE=Smokin' Joe Kubek and Bnois King - Close To The Bone
DYEAR=2012
DGENRE=Texas Blues
TTITLE0=Poor Boy Blues
TTITLE1=Can't Let Go
TTITLE2=My Best Friend
TTITLE3=Keep Her Around
TTITLE4=Get Out There
TTITLE5=Yankin' My Chain
TTITLE6=Drowning In Red Ink
TTITLE7=My Hat's Off To You
TTITLE8=No Good Could Come Of This
TTITLE9=Ordinary Man
TTITLE10=She Got Rid Of Me
TTITLE11=Jump The Moon
TTITLE12=Mama's Bad Luck Child
TTITLE13=Baby You're The One
EXTD=
EXTT0=
EXTT1=
EXTT2=
EXTT3=
EXTT4=
EXTT5=
EXTT6=
EXTT7=
EXTT8=
EXTT9=
EXTT10=
EXTT11=
EXTT12=
EXTT13=
PLAYORDER=
